<svg xmlns="http://www.w3.org/2000/svg" viewBox="0 0 1390 2896">
<!--BODY--><image href="/devices/iphone-15-pro-max/natural-titanium.webp" x="0" y="0" width="1390" height="2896" preserveAspectRatio="none"/><!--/BODY-->
<!--SCREEN--><defs>
<linearGradient id="fk_scr_iphone-15-pro-max_natural-titanium_a" x1="0" y1="0" x2="1" y2="1"><stop offset="0" stop-color="#4c1d95"/><stop offset="1" stop-color="#1e3a8a"/></linearGradient>
<radialGradient id="fk_scr_iphone-15-pro-max_natural-titanium_b" cx="0.28" cy="0.22" r="0.8"><stop offset="0" stop-color="#c4b5fd" stop-opacity="0.95"/><stop offset="1" stop-color="#c4b5fd" stop-opacity="0"/></radialGradient>
<radialGradient id="fk_scr_iphone-15-pro-max_natural-titanium_c" cx="0.85" cy="0.92" r="0.9"><stop offset="0" stop-color="#ffffff" stop-opacity="0.32"/><stop offset="1" stop-color="#ffffff" stop-opacity="0"/></radialGradient>
</defs>
<path d="M210 50 H1180 A160 160 0 0 1 1340 210 V2686 A160 160 0 0 1 1180 2846 H210 A160 160 0 0 1 50 2686 V210 A160 160 0 0 1 210 50 Z" fill="url(#fk_scr_iphone-15-pro-max_natural-titanium_a)"/>
<path d="M210 50 H1180 A160 160 0 0 1 1340 210 V2686 A160 160 0 0 1 1180 2846 H210 A160 160 0 0 1 50 2686 V210 A160 160 0 0 1 210 50 Z" fill="url(#fk_scr_iphone-15-pro-max_natural-titanium_b)"/>
<path d="M210 50 H1180 A160 160 0 0 1 1340 210 V2686 A160 160 0 0 1 1180 2846 H210 A160 160 0 0 1 50 2686 V210 A160 160 0 0 1 210 50 Z" fill="url(#fk_scr_iphone-15-pro-max_natural-titanium_c)"/><!--/SCREEN-->
<!--OVERLAY-->
<rect x="515" y="83" width="360" height="108" rx="54" fill="#000"/>
<rect x="516" y="84" width="358" height="106" rx="53" fill="none" stroke="#1c1c22" stroke-width="1.5"/>
<circle cx="821" cy="137" r="32.4" fill="#07070b"/>
<circle cx="821" cy="137" r="23.76" fill="#0d1020" stroke="#1a2036" stroke-width="2"/>
<circle cx="821" cy="137" r="11.88" fill="#16203a"/>
<circle cx="812.36" cy="127.28" r="4.859999999999999" fill="#5a6ea0" opacity="0.8"/>
<circle cx="581.96" cy="137" r="12.959999999999999" fill="#0a0a10"/>
<path d="M210 50 H1180 A160 160 0 0 1 1340 210 V2686 A160 160 0 0 1 1180 2846 H210 A160 160 0 0 1 50 2686 V210 A160 160 0 0 1 210 50 Z" fill="none" stroke="#000" stroke-opacity="0.45" stroke-width="4"/><!--/OVERLAY-->
</svg>