<svg xmlns="http://www.w3.org/2000/svg" viewBox="0 0 1460 3108">
<!--BODY-->
<defs>
<linearGradient id="fk_pixel-10-pro-xl_obsidian_rail" x1="0" y1="0" x2="1" y2="1"><stop offset="0" stop-color="#4d5156"/><stop offset="0.5" stop-color="#26282b"/><stop offset="1" stop-color="#3f4347"/></linearGradient>

<linearGradient id="fk_pixel-10-pro-xl_obsidian_edgeH" x1="0" y1="0" x2="1" y2="0">
  <stop offset="0" stop-color="#000" stop-opacity="0.55"/>
  <stop offset="0.004" stop-color="#fff" stop-opacity="0.05"/>
  <stop offset="0.009" stop-color="#fff" stop-opacity="0.55"/>
  <stop offset="0.018" stop-color="#fff" stop-opacity="0.06"/>
  <stop offset="0.5" stop-color="#fff" stop-opacity="0"/>
  <stop offset="0.982" stop-color="#fff" stop-opacity="0.04"/>
  <stop offset="0.991" stop-color="#fff" stop-opacity="0.38"/>
  <stop offset="0.996" stop-color="#000" stop-opacity="0.1"/>
  <stop offset="1" stop-color="#000" stop-opacity="0.6"/>
</linearGradient>
<linearGradient id="fk_pixel-10-pro-xl_obsidian_edgeV" x1="0" y1="0" x2="0" y2="1">
  <stop offset="0" stop-color="#fff" stop-opacity="0.35"/>
  <stop offset="0.006" stop-color="#fff" stop-opacity="0.08"/>
  <stop offset="0.5" stop-color="#fff" stop-opacity="0"/>
  <stop offset="0.994" stop-color="#000" stop-opacity="0.12"/>
  <stop offset="1" stop-color="#000" stop-opacity="0.5"/>
</linearGradient>
<linearGradient id="fk_pixel-10-pro-xl_obsidian_btn_left" x1="0" y1="0" x2="1" y2="0"><stop offset="0" stop-color="#000"/><stop offset="0.25" stop-color="#4d5156"/><stop offset="0.6" stop-color="#26282b"/><stop offset="1" stop-color="#3f4347"/></linearGradient>
<linearGradient id="fk_pixel-10-pro-xl_obsidian_btn_right" x1="0" y1="0" x2="1" y2="0"><stop offset="0" stop-color="#3f4347"/><stop offset="0.4" stop-color="#26282b"/><stop offset="0.75" stop-color="#4d5156"/><stop offset="1" stop-color="#000"/></linearGradient>
<linearGradient id="fk_pixel-10-pro-xl_obsidian_glass" x1="0" y1="0" x2="1" y2="1">
  <stop offset="0" stop-color="#ffffff" stop-opacity="0.07"/>
  <stop offset="0.35" stop-color="#ffffff" stop-opacity="0.015"/>
  <stop offset="1" stop-color="#ffffff" stop-opacity="0"/>
</linearGradient>
<radialGradient id="fk_pixel-10-pro-xl_obsidian_sheen" cx="0.25" cy="0.05" r="1.4">
  <stop offset="0" stop-color="#ffffff" stop-opacity="0.10"/>
  <stop offset="0.4" stop-color="#ffffff" stop-opacity="0.02"/>
  <stop offset="1" stop-color="#ffffff" stop-opacity="0"/>
</radialGradient>
</defs>
<rect x="1442" y="605" width="16" height="220" rx="7" fill="#000" opacity="0.28"/>
<rect x="1442" y="602" width="16" height="220" rx="7" fill="url(#fk_pixel-10-pro-xl_obsidian_btn_right)"/>
<rect x="1453" y="608" width="2" height="208" rx="1" fill="#fff" opacity="0.35"/>
<rect x="1442" y="875" width="16" height="340" rx="7" fill="#000" opacity="0.28"/>
<rect x="1442" y="872" width="16" height="340" rx="7" fill="url(#fk_pixel-10-pro-xl_obsidian_btn_right)"/>
<rect x="1453" y="878" width="2" height="328" rx="1" fill="#fff" opacity="0.35"/>
<path d="M188 12 H1272 A176 176 0 0 1 1448 188 V2920 A176 176 0 0 1 1272 3096 H188 A176 176 0 0 1 12 2920 V188 A176 176 0 0 1 188 12 Z" fill="url(#fk_pixel-10-pro-xl_obsidian_rail)"/>
<path d="M188 12 H1272 A176 176 0 0 1 1448 188 V2920 A176 176 0 0 1 1272 3096 H188 A176 176 0 0 1 12 2920 V188 A176 176 0 0 1 188 12 Z" fill="url(#fk_pixel-10-pro-xl_obsidian_edgeH)"/>
<path d="M188 12 H1272 A176 176 0 0 1 1448 188 V2920 A176 176 0 0 1 1272 3096 H188 A176 176 0 0 1 12 2920 V188 A176 176 0 0 1 188 12 Z" fill="url(#fk_pixel-10-pro-xl_obsidian_edgeV)"/>
<rect x="12" y="156.32" width="17" height="7" fill="#26282b" opacity="0.9"/><rect x="12" y="156.32" width="17" height="7" fill="#000" opacity="0.22"/>
<rect x="1431" y="156.32" width="17" height="7" fill="#26282b" opacity="0.9"/><rect x="1431" y="156.32" width="17" height="7" fill="#000" opacity="0.22"/>
<rect x="12" y="2951.68" width="17" height="7" fill="#26282b" opacity="0.9"/><rect x="12" y="2951.68" width="17" height="7" fill="#000" opacity="0.22"/>
<rect x="1431" y="2951.68" width="17" height="7" fill="#26282b" opacity="0.9"/><rect x="1431" y="2951.68" width="17" height="7" fill="#000" opacity="0.22"/>
<rect x="1132.08" y="12" width="7" height="17" fill="#26282b" opacity="0.9"/><rect x="1132.08" y="12" width="7" height="17" fill="#000" opacity="0.22"/>
<rect x="327.92" y="3079" width="7" height="17" fill="#26282b" opacity="0.9"/><rect x="327.92" y="3079" width="7" height="17" fill="#000" opacity="0.22"/>
<path d="M188 12.75 H1272 A175.25 175.25 0 0 1 1447.25 188 V2920 A175.25 175.25 0 0 1 1272 3095.25 H188 A175.25 175.25 0 0 1 12.75 2920 V188 A175.25 175.25 0 0 1 188 12.75 Z" fill="none" stroke="#000" stroke-opacity="0.55" stroke-width="1.5"/>
<path d="M188 15 H1272 A173 173 0 0 1 1445 188 V2920 A173 173 0 0 1 1272 3093 H188 A173 173 0 0 1 15 2920 V188 A173 173 0 0 1 188 15 Z" fill="none" stroke="#fff" stroke-opacity="0.32" stroke-width="1.4"/>
<path d="M188 27 H1272 A161 161 0 0 1 1433 188 V2920 A161 161 0 0 1 1272 3081 H188 A161 161 0 0 1 27 2920 V188 A161 161 0 0 1 188 27 Z" fill="#000" fill-opacity="0.65"/>
<path d="M188 29 H1272 A159 159 0 0 1 1431 188 V2920 A159 159 0 0 1 1272 3079 H188 A159 159 0 0 1 29 2920 V188 A159 159 0 0 1 188 29 Z" fill="#0b0b0d"/>
<path d="M188 29 H1272 A159 159 0 0 1 1431 188 V2920 A159 159 0 0 1 1272 3079 H188 A159 159 0 0 1 29 2920 V188 A159 159 0 0 1 188 29 Z" fill="url(#fk_pixel-10-pro-xl_obsidian_glass)"/>
<path d="M188 29 H1272 A159 159 0 0 1 1431 188 V2920 A159 159 0 0 1 1272 3079 H188 A159 159 0 0 1 29 2920 V188 A159 159 0 0 1 188 29 Z" fill="url(#fk_pixel-10-pro-xl_obsidian_sheen)"/>
<path d="M188 30 H1272 A158 158 0 0 1 1430 188 V2920 A158 158 0 0 1 1272 3078 H188 A158 158 0 0 1 30 2920 V188 A158 158 0 0 1 188 30 Z" fill="none" stroke="#fff" stroke-opacity="0.07" stroke-width="2"/>
<path d="M184 55 H1276 A129 129 0 0 1 1405 184 V2924 A129 129 0 0 1 1276 3053 H184 A129 129 0 0 1 55 2924 V184 A129 129 0 0 1 184 55 Z" fill="#000"/>
<!--/BODY-->
<!--SCREEN--><defs>
<linearGradient id="fk_scr_pixel-10-pro-xl_obsidian_a" x1="0" y1="0" x2="1" y2="1"><stop offset="0" stop-color="#0f766e"/><stop offset="1" stop-color="#0f172a"/></linearGradient>
<radialGradient id="fk_scr_pixel-10-pro-xl_obsidian_b" cx="0.28" cy="0.22" r="0.8"><stop offset="0" stop-color="#99f6e4" stop-opacity="0.95"/><stop offset="1" stop-color="#99f6e4" stop-opacity="0"/></radialGradient>
<radialGradient id="fk_scr_pixel-10-pro-xl_obsidian_c" cx="0.85" cy="0.92" r="0.9"><stop offset="0" stop-color="#ffffff" stop-opacity="0.32"/><stop offset="1" stop-color="#ffffff" stop-opacity="0"/></radialGradient>
</defs>
<path d="M184 58 H1276 A126 126 0 0 1 1402 184 V2924 A126 126 0 0 1 1276 3050 H184 A126 126 0 0 1 58 2924 V184 A126 126 0 0 1 184 58 Z" fill="url(#fk_scr_pixel-10-pro-xl_obsidian_a)"/>
<path d="M184 58 H1276 A126 126 0 0 1 1402 184 V2924 A126 126 0 0 1 1276 3050 H184 A126 126 0 0 1 58 2924 V184 A126 126 0 0 1 184 58 Z" fill="url(#fk_scr_pixel-10-pro-xl_obsidian_b)"/>
<path d="M184 58 H1276 A126 126 0 0 1 1402 184 V2924 A126 126 0 0 1 1276 3050 H184 A126 126 0 0 1 58 2924 V184 A126 126 0 0 1 184 58 Z" fill="url(#fk_scr_pixel-10-pro-xl_obsidian_c)"/><!--/SCREEN-->
<!--OVERLAY-->
<circle cx="730" cy="156" r="42" fill="#000" opacity="0.5"/>
<circle cx="730" cy="156" r="40" fill="#020204"/>
<circle cx="730" cy="156" r="24.8" fill="#0b0e18" stroke="#1b2134" stroke-width="2"/>
<circle cx="730" cy="156" r="12" fill="#141c30"/>
<circle cx="721.2" cy="146" r="5.6000000000000005" fill="#5a6ea0" opacity="0.75"/>
<path d="M184 58 H1276 A126 126 0 0 1 1402 184 V2924 A126 126 0 0 1 1276 3050 H184 A126 126 0 0 1 58 2924 V184 A126 126 0 0 1 184 58 Z" fill="none" stroke="#000" stroke-opacity="0.45" stroke-width="4"/><!--/OVERLAY-->
</svg>