<svg xmlns="http://www.w3.org/2000/svg" viewBox="0 0 2580 1770">
<!--BODY-->
<defs></defs>
<path d="M36 8 H2544 A28 28 0 0 1 2572 36 V1734 A28 28 0 0 1 2544 1762 H36 A28 28 0 0 1 8 1734 V36 A28 28 0 0 1 36 8 Z" fill="#0c0c0d"/>

<path d="M36 10 H2544 A26 26 0 0 1 2570 36 V160 H10 V36 A26 26 0 0 1 36 10 Z" fill="#1c1b22"/>

<circle cx="54" cy="48" r="13" fill="#ff5f57"/>
<circle cx="98" cy="48" r="13" fill="#febc2e"/>
<circle cx="142" cy="48" r="13" fill="#28c840"/>
<rect x="190" y="28" width="540" height="54" rx="16" fill="#2b2a33"/>
<clipPath id="fk_firefox-browser_dark_tabclip"><rect x="252" y="24" width="416" height="62"/></clipPath>
<circle cx="226" cy="57" r="14" fill="#ff9a62"/>
<text x="226" y="64" text-anchor="middle" font-family="ui-sans-serif, -apple-system, 'Segoe UI', Roboto, sans-serif" font-size="19" font-weight="700" fill="#ffffff">M</text>
<g clip-path="url(#fk_firefox-browser_dark_tabclip)"><text x="256" y="65" font-family="ui-sans-serif, -apple-system, 'Segoe UI', Roboto, sans-serif" font-size="25" fill="#fbfbfe" id="fk_tabtitle_fk_firefox-browser_dark">MockFrame</text></g>
<path d="M690 48 l18 18 m0 -18 l-18 18" stroke="#a8a8b3" stroke-width="3.6" stroke-linecap="round"/>
<path d="M741 44 v28" stroke="#a8a8b3" stroke-width="2" opacity="0.5"/>
<circle cx="780" cy="57" r="12" fill="#a8a8b3" opacity="0.55"/>
<text x="806" y="65" font-family="ui-sans-serif, -apple-system, 'Segoe UI', Roboto, sans-serif" font-size="24" fill="#a8a8b3">New tab</text>
<path d="M992 57 h20 M1002 47 v20" stroke="#a8a8b3" stroke-width="3.6" stroke-linecap="round"/>

<rect x="10" y="86" width="2560" height="74" fill="#2b2a33"/>
<path d="M79 123 H53 M63 113 l-10 10 10 10" stroke="#a8a8b3" stroke-width="4.5" fill="none" stroke-linecap="round" stroke-linejoin="round" opacity="1"/><path d="M113 123 H139 M129 113 l10 10 -10 10" stroke="#a8a8b3" stroke-width="4.5" fill="none" stroke-linecap="round" stroke-linejoin="round" opacity="0.45"/><path d="M198 116 A13.5 13.5 0 1 0 199 126" stroke="#a8a8b3" stroke-width="4.5" fill="none" stroke-linecap="round"/><path d="M200 106 v11 h-11" stroke="#a8a8b3" stroke-width="4.5" fill="none" stroke-linecap="round" stroke-linejoin="round"/>
<rect x="260" y="95" width="1980" height="56" rx="28" fill="#1c1b22"/>
<g stroke="#a8a8b3" stroke-width="3.6" stroke-linecap="round"><path d="M287 117 h22 M287 130 h22"/></g><circle cx="303" cy="117" r="4.6" fill="#a8a8b3"/><circle cx="293" cy="130" r="4.6" fill="#a8a8b3"/>
<clipPath id="fk_firefox-browser_dark_urlclip"><rect x="330" y="95" width="1840" height="56"/></clipPath>
<g clip-path="url(#fk_firefox-browser_dark_urlclip)"><text x="336" y="133" font-family="ui-sans-serif, -apple-system, 'Segoe UI', Roboto, sans-serif" font-size="30" fill="#fbfbfe" id="fk_urltext_fk_firefox-browser_dark">mockframe.app</text></g>
<path d="M2196 109 l4.4 9.4 10.2 1.2 -7.5 7 2 10.1 -9.1 -5 -9.1 5 2 -10.1 -7.5 -7 10.2 -1.2 Z" stroke="#a8a8b3" stroke-width="3.4" fill="none" stroke-linejoin="round"/>
<path d="M2308 114 h8 a5 5 0 1 1 10 0 h4 v8 a5 5 0 1 1 0 10 v6 h-22 Z" stroke="#a8a8b3" stroke-width="3.4" fill="none" stroke-linejoin="round"/>
<circle cx="2400" cy="123" r="19" fill="#ff9a62"/>
<text x="2400" y="131" text-anchor="middle" font-family="ui-sans-serif, -apple-system, 'Segoe UI', Roboto, sans-serif" font-size="22" font-weight="700" fill="#ffffff">T</text>
<g fill="#a8a8b3"><circle cx="2474" cy="111" r="3.8"/><circle cx="2474" cy="123" r="3.8"/><circle cx="2474" cy="135" r="3.8"/></g>
<rect x="10" y="158" width="2560" height="2" fill="#0c0c0d"/>
<rect x="10" y="160" width="2560" height="1600" fill="#2b2a33"/>
<!--/BODY-->
<!--SCREEN--><path d="M10 160 H2570 V1734 A26 26 0 0 1 2544 1760 H36 A26 26 0 0 1 10 1734 V160 Z" fill="#f6f7f9"/>
<rect x="163.6" y="288" width="1075.2" height="96" rx="48" fill="#e2e5ea"/>
<rect x="163.6" y="480" width="2252.8" height="640" rx="28" fill="#e9ecf1"/>
<rect x="163.6" y="1216" width="1075.2" height="352" rx="24" fill="#eef0f4"/>
<rect x="1341.2" y="1216" width="1075.2" height="352" rx="24" fill="#eef0f4"/><!--/SCREEN-->
<!--OVERLAY--><!--/OVERLAY-->
</svg>