<svg xmlns="http://www.w3.org/2000/svg" viewBox="0 0 1279 2656">
<!--BODY--><image href="/devices/iphone-15-pro/natural-titanium.webp" x="0" y="0" width="1279" height="2656" preserveAspectRatio="none"/><!--/BODY-->
<!--SCREEN--><defs>
<linearGradient id="fk_scr_iphone-15-pro_natural-titanium_a" x1="0" y1="0" x2="1" y2="1"><stop offset="0" stop-color="#5b21b6"/><stop offset="1" stop-color="#2563eb"/></linearGradient>
<radialGradient id="fk_scr_iphone-15-pro_natural-titanium_b" cx="0.28" cy="0.22" r="0.8"><stop offset="0" stop-color="#a5b4fc" stop-opacity="0.95"/><stop offset="1" stop-color="#a5b4fc" stop-opacity="0"/></radialGradient>
<radialGradient id="fk_scr_iphone-15-pro_natural-titanium_c" cx="0.85" cy="0.92" r="0.9"><stop offset="0" stop-color="#ffffff" stop-opacity="0.32"/><stop offset="1" stop-color="#ffffff" stop-opacity="0"/></radialGradient>
</defs>
<path d="M200 50 H1079 A150 150 0 0 1 1229 200 V2456 A150 150 0 0 1 1079 2606 H200 A150 150 0 0 1 50 2456 V200 A150 150 0 0 1 200 50 Z" fill="url(#fk_scr_iphone-15-pro_natural-titanium_a)"/>
<path d="M200 50 H1079 A150 150 0 0 1 1229 200 V2456 A150 150 0 0 1 1079 2606 H200 A150 150 0 0 1 50 2456 V200 A150 150 0 0 1 200 50 Z" fill="url(#fk_scr_iphone-15-pro_natural-titanium_b)"/>
<path d="M200 50 H1079 A150 150 0 0 1 1229 200 V2456 A150 150 0 0 1 1079 2606 H200 A150 150 0 0 1 50 2456 V200 A150 150 0 0 1 200 50 Z" fill="url(#fk_scr_iphone-15-pro_natural-titanium_c)"/><!--/SCREEN-->
<!--OVERLAY-->
<rect x="469.5" y="82" width="340" height="104" rx="52" fill="#000"/>
<rect x="470.5" y="83" width="338" height="102" rx="51" fill="none" stroke="#1c1c22" stroke-width="1.5"/>
<circle cx="757.5" cy="134" r="31.2" fill="#07070b"/>
<circle cx="757.5" cy="134" r="22.88" fill="#0d1020" stroke="#1a2036" stroke-width="2"/>
<circle cx="757.5" cy="134" r="11.44" fill="#16203a"/>
<circle cx="749.18" cy="124.64" r="4.68" fill="#5a6ea0" opacity="0.8"/>
<circle cx="533.98" cy="134" r="12.48" fill="#0a0a10"/>
<path d="M200 50 H1079 A150 150 0 0 1 1229 200 V2456 A150 150 0 0 1 1079 2606 H200 A150 150 0 0 1 50 2456 V200 A150 150 0 0 1 200 50 Z" fill="none" stroke="#000" stroke-opacity="0.45" stroke-width="4"/><!--/OVERLAY-->
</svg>