<svg xmlns="http://www.w3.org/2000/svg" viewBox="0 0 1302 2718">
<!--BODY-->
<defs>
<linearGradient id="fk_iphone-16-pro_natural-titanium_rail" x1="0" y1="0" x2="1" y2="1"><stop offset="0" stop-color="#c2beb5"/><stop offset="0.5" stop-color="#8f8b82"/><stop offset="1" stop-color="#b3afa6"/></linearGradient>

<linearGradient id="fk_iphone-16-pro_natural-titanium_edgeH" x1="0" y1="0" x2="1" y2="0">
  <stop offset="0" stop-color="#000" stop-opacity="0.55"/>
  <stop offset="0.004" stop-color="#fff" stop-opacity="0.05"/>
  <stop offset="0.009" stop-color="#fff" stop-opacity="0.55"/>
  <stop offset="0.018" stop-color="#fff" stop-opacity="0.06"/>
  <stop offset="0.5" stop-color="#fff" stop-opacity="0"/>
  <stop offset="0.982" stop-color="#fff" stop-opacity="0.04"/>
  <stop offset="0.991" stop-color="#fff" stop-opacity="0.38"/>
  <stop offset="0.996" stop-color="#000" stop-opacity="0.1"/>
  <stop offset="1" stop-color="#000" stop-opacity="0.6"/>
</linearGradient>
<linearGradient id="fk_iphone-16-pro_natural-titanium_edgeV" x1="0" y1="0" x2="0" y2="1">
  <stop offset="0" stop-color="#fff" stop-opacity="0.35"/>
  <stop offset="0.006" stop-color="#fff" stop-opacity="0.08"/>
  <stop offset="0.5" stop-color="#fff" stop-opacity="0"/>
  <stop offset="0.994" stop-color="#000" stop-opacity="0.12"/>
  <stop offset="1" stop-color="#000" stop-opacity="0.5"/>
</linearGradient>
<linearGradient id="fk_iphone-16-pro_natural-titanium_btn_left" x1="0" y1="0" x2="1" y2="0"><stop offset="0" stop-color="#000"/><stop offset="0.25" stop-color="#c2beb5"/><stop offset="0.6" stop-color="#8f8b82"/><stop offset="1" stop-color="#b3afa6"/></linearGradient>
<linearGradient id="fk_iphone-16-pro_natural-titanium_btn_right" x1="0" y1="0" x2="1" y2="0"><stop offset="0" stop-color="#b3afa6"/><stop offset="0.4" stop-color="#8f8b82"/><stop offset="0.75" stop-color="#c2beb5"/><stop offset="1" stop-color="#000"/></linearGradient>
<linearGradient id="fk_iphone-16-pro_natural-titanium_glass" x1="0" y1="0" x2="1" y2="1">
  <stop offset="0" stop-color="#ffffff" stop-opacity="0.07"/>
  <stop offset="0.35" stop-color="#ffffff" stop-opacity="0.015"/>
  <stop offset="1" stop-color="#ffffff" stop-opacity="0"/>
</linearGradient>
<radialGradient id="fk_iphone-16-pro_natural-titanium_sheen" cx="0.25" cy="0.05" r="1.4">
  <stop offset="0" stop-color="#ffffff" stop-opacity="0.10"/>
  <stop offset="0.4" stop-color="#ffffff" stop-opacity="0.02"/>
  <stop offset="1" stop-color="#ffffff" stop-opacity="0"/>
</radialGradient>
</defs>
<rect x="2" y="515" width="16" height="96" rx="7" fill="#000" opacity="0.28"/>
<rect x="2" y="512" width="16" height="96" rx="7" fill="url(#fk_iphone-16-pro_natural-titanium_btn_left)"/>
<rect x="5" y="518" width="2" height="84" rx="1" fill="#fff" opacity="0.35"/>
<rect x="2" y="695" width="16" height="180" rx="7" fill="#000" opacity="0.28"/>
<rect x="2" y="692" width="16" height="180" rx="7" fill="url(#fk_iphone-16-pro_natural-titanium_btn_left)"/>
<rect x="5" y="698" width="2" height="168" rx="1" fill="#fff" opacity="0.35"/>
<rect x="2" y="915" width="16" height="180" rx="7" fill="#000" opacity="0.28"/>
<rect x="2" y="912" width="16" height="180" rx="7" fill="url(#fk_iphone-16-pro_natural-titanium_btn_left)"/>
<rect x="5" y="918" width="2" height="168" rx="1" fill="#fff" opacity="0.35"/>
<rect x="1284" y="655" width="16" height="300" rx="7" fill="#000" opacity="0.28"/>
<rect x="1284" y="652" width="16" height="300" rx="7" fill="url(#fk_iphone-16-pro_natural-titanium_btn_right)"/>
<rect x="1295" y="658" width="2" height="288" rx="1" fill="#fff" opacity="0.35"/>
<path d="M212 12 H1090 A200 200 0 0 1 1290 212 V2506 A200 200 0 0 1 1090 2706 H212 A200 200 0 0 1 12 2506 V212 A200 200 0 0 1 212 12 Z" fill="url(#fk_iphone-16-pro_natural-titanium_rail)"/>
<path d="M212 12 H1090 A200 200 0 0 1 1290 212 V2506 A200 200 0 0 1 1090 2706 H212 A200 200 0 0 1 12 2506 V212 A200 200 0 0 1 212 12 Z" fill="url(#fk_iphone-16-pro_natural-titanium_edgeH)"/>
<path d="M212 12 H1090 A200 200 0 0 1 1290 212 V2506 A200 200 0 0 1 1090 2706 H212 A200 200 0 0 1 12 2506 V212 A200 200 0 0 1 212 12 Z" fill="url(#fk_iphone-16-pro_natural-titanium_edgeV)"/>
<rect x="12" y="176" width="13" height="7" fill="#8f8b82" opacity="0.9"/><rect x="12" y="176" width="13" height="7" fill="#000" opacity="0.22"/>
<rect x="1277" y="176" width="13" height="7" fill="#8f8b82" opacity="0.9"/><rect x="1277" y="176" width="13" height="7" fill="#000" opacity="0.22"/>
<rect x="12" y="2542" width="13" height="7" fill="#8f8b82" opacity="0.9"/><rect x="12" y="2542" width="13" height="7" fill="#000" opacity="0.22"/>
<rect x="1277" y="2542" width="13" height="7" fill="#8f8b82" opacity="0.9"/><rect x="1277" y="2542" width="13" height="7" fill="#000" opacity="0.22"/>
<rect x="1008.84" y="12" width="7" height="13" fill="#8f8b82" opacity="0.9"/><rect x="1008.84" y="12" width="7" height="13" fill="#000" opacity="0.22"/>
<rect x="293.16" y="2693" width="7" height="13" fill="#8f8b82" opacity="0.9"/><rect x="293.16" y="2693" width="7" height="13" fill="#000" opacity="0.22"/>
<path d="M212 12.75 H1090 A199.25 199.25 0 0 1 1289.25 212 V2506 A199.25 199.25 0 0 1 1090 2705.25 H212 A199.25 199.25 0 0 1 12.75 2506 V212 A199.25 199.25 0 0 1 212 12.75 Z" fill="none" stroke="#000" stroke-opacity="0.55" stroke-width="1.5"/>
<path d="M212 15 H1090 A197 197 0 0 1 1287 212 V2506 A197 197 0 0 1 1090 2703 H212 A197 197 0 0 1 15 2506 V212 A197 197 0 0 1 212 15 Z" fill="none" stroke="#fff" stroke-opacity="0.32" stroke-width="1.4"/>
<path d="M212 23 H1090 A189 189 0 0 1 1279 212 V2506 A189 189 0 0 1 1090 2695 H212 A189 189 0 0 1 23 2506 V212 A189 189 0 0 1 212 23 Z" fill="#000" fill-opacity="0.65"/>
<path d="M212 25 H1090 A187 187 0 0 1 1277 212 V2506 A187 187 0 0 1 1090 2693 H212 A187 187 0 0 1 25 2506 V212 A187 187 0 0 1 212 25 Z" fill="#101012"/>
<path d="M212 25 H1090 A187 187 0 0 1 1277 212 V2506 A187 187 0 0 1 1090 2693 H212 A187 187 0 0 1 25 2506 V212 A187 187 0 0 1 212 25 Z" fill="url(#fk_iphone-16-pro_natural-titanium_glass)"/>
<path d="M212 25 H1090 A187 187 0 0 1 1277 212 V2506 A187 187 0 0 1 1090 2693 H212 A187 187 0 0 1 25 2506 V212 A187 187 0 0 1 212 25 Z" fill="url(#fk_iphone-16-pro_natural-titanium_sheen)"/>
<path d="M212 26 H1090 A186 186 0 0 1 1276 212 V2506 A186 186 0 0 1 1090 2692 H212 A186 186 0 0 1 26 2506 V212 A186 186 0 0 1 212 26 Z" fill="none" stroke="#fff" stroke-opacity="0.07" stroke-width="2"/>
<path d="M213 45 H1089 A168 168 0 0 1 1257 213 V2505 A168 168 0 0 1 1089 2673 H213 A168 168 0 0 1 45 2505 V213 A168 168 0 0 1 213 45 Z" fill="#000"/>
<!--/BODY-->
<!--SCREEN--><defs>
<linearGradient id="fk_scr_iphone-16-pro_natural-titanium_a" x1="0" y1="0" x2="1" y2="1"><stop offset="0" stop-color="#5b21b6"/><stop offset="1" stop-color="#2563eb"/></linearGradient>
<radialGradient id="fk_scr_iphone-16-pro_natural-titanium_b" cx="0.28" cy="0.22" r="0.8"><stop offset="0" stop-color="#c084fc" stop-opacity="0.95"/><stop offset="1" stop-color="#c084fc" stop-opacity="0"/></radialGradient>
<radialGradient id="fk_scr_iphone-16-pro_natural-titanium_c" cx="0.85" cy="0.92" r="0.9"><stop offset="0" stop-color="#ffffff" stop-opacity="0.32"/><stop offset="1" stop-color="#ffffff" stop-opacity="0"/></radialGradient>
</defs>
<path d="M213 48 H1089 A165 165 0 0 1 1254 213 V2505 A165 165 0 0 1 1089 2670 H213 A165 165 0 0 1 48 2505 V213 A165 165 0 0 1 213 48 Z" fill="url(#fk_scr_iphone-16-pro_natural-titanium_a)"/>
<path d="M213 48 H1089 A165 165 0 0 1 1254 213 V2505 A165 165 0 0 1 1089 2670 H213 A165 165 0 0 1 48 2505 V213 A165 165 0 0 1 213 48 Z" fill="url(#fk_scr_iphone-16-pro_natural-titanium_b)"/>
<path d="M213 48 H1089 A165 165 0 0 1 1254 213 V2505 A165 165 0 0 1 1089 2670 H213 A165 165 0 0 1 48 2505 V213 A165 165 0 0 1 213 48 Z" fill="url(#fk_scr_iphone-16-pro_natural-titanium_c)"/><!--/SCREEN-->
<!--OVERLAY-->
<rect x="465" y="81" width="372" height="110" rx="55" fill="#000"/>
<rect x="466" y="82" width="370" height="108" rx="54" fill="none" stroke="#1c1c22" stroke-width="1.5"/>
<circle cx="782" cy="136" r="33" fill="#07070b"/>
<circle cx="782" cy="136" r="24.2" fill="#0d1020" stroke="#1a2036" stroke-width="2"/>
<circle cx="782" cy="136" r="12.1" fill="#16203a"/>
<circle cx="773.2" cy="126.1" r="4.95" fill="#5a6ea0" opacity="0.8"/>
<circle cx="533.2" cy="136" r="13.2" fill="#0a0a10"/>
<path d="M213 48 H1089 A165 165 0 0 1 1254 213 V2505 A165 165 0 0 1 1089 2670 H213 A165 165 0 0 1 48 2505 V213 A165 165 0 0 1 213 48 Z" fill="none" stroke="#000" stroke-opacity="0.45" stroke-width="4"/><!--/OVERLAY-->
</svg>