<svg xmlns="http://www.w3.org/2000/svg" viewBox="0 0 726 1484">
<!--BODY-->
<defs>
<linearGradient id="fk_galaxy-watch-8-classic_white_case" x1="0" y1="0" x2="1" y2="1"><stop offset="0" stop-color="#f3f4f6"/><stop offset="0.5" stop-color="#b9bcc3"/><stop offset="1" stop-color="#e5e7eb"/></linearGradient>
<linearGradient id="fk_galaxy-watch-8-classic_white_band" x1="0" y1="0" x2="1" y2="0"><stop offset="0" stop-color="#ecebe7"/><stop offset="0.5" stop-color="#f7f6f2"/><stop offset="1" stop-color="#e4e2dd"/></linearGradient>
<radialGradient id="fk_galaxy-watch-8-classic_white_dome" cx="0.35" cy="0.25" r="0.9">
  <stop offset="0" stop-color="#fff" stop-opacity="0.12"/><stop offset="0.6" stop-color="#fff" stop-opacity="0.02"/><stop offset="1" stop-color="#fff" stop-opacity="0"/>
</radialGradient>
<radialGradient id="fk_galaxy-watch-8-classic_white_rimShade" cx="0.5" cy="0.5" r="0.5">
  <stop offset="0.86" stop-color="#000" stop-opacity="0"/><stop offset="1" stop-color="#000" stop-opacity="0.45"/>
</radialGradient>
<linearGradient id="fk_galaxy-watch-8-classic_white_bandShade" x1="0" y1="0" x2="0" y2="1">
  <stop offset="0" stop-color="#000" stop-opacity="0.15"/><stop offset="0.7" stop-color="#000" stop-opacity="0"/><stop offset="1" stop-color="#000" stop-opacity="0.35"/>
</linearGradient>
</defs>
<path d="M175.5 16 H516.5 A34 34 0 0 1 550.5 50 V742 H141.5 V50 A34 34 0 0 1 175.5 16 Z" fill="url(#fk_galaxy-watch-8-classic_white_band)"/>
<path d="M175.5 16 H516.5 A34 34 0 0 1 550.5 50 V742 H141.5 V50 A34 34 0 0 1 175.5 16 Z" fill="url(#fk_galaxy-watch-8-classic_white_bandShade)"/>
<path d="M141.5 742 H550.5 V1434 A34 34 0 0 1 516.5 1468 H175.5 A34 34 0 0 1 141.5 1434 V742 Z" fill="url(#fk_galaxy-watch-8-classic_white_band)"/>
<path d="M141.5 742 H550.5 V1434 A34 34 0 0 1 516.5 1468 H175.5 A34 34 0 0 1 141.5 1434 V742 Z" fill="url(#fk_galaxy-watch-8-classic_white_bandShade)"/>
<rect x="662" y="696" width="48" height="92" rx="20" fill="url(#fk_galaxy-watch-8-classic_white_case)"/>
<rect x="698" y="702" width="8" height="80" rx="4" fill="#000" opacity="0.25"/>
<rect x="616.5999999999999" y="504.4" width="26" height="60" rx="10" fill="url(#fk_galaxy-watch-8-classic_white_case)" transform="rotate(35 616.5999999999999 504.4)"/>
<path d="M16 742 A330 330 0 1 0 676 742 A330 330 0 1 0 16 742 Z" fill="url(#fk_galaxy-watch-8-classic_white_case)"/>
<path d="M17.5 742 A328.5 328.5 0 1 0 674.5 742 A328.5 328.5 0 1 0 17.5 742 Z" fill="none" stroke="#000" stroke-opacity="0.45" stroke-width="3"/>
<path d="M21 742 A325 325 0 1 0 671 742 A325 325 0 1 0 21 742 Z" fill="none" stroke="#fff" stroke-opacity="0.4" stroke-width="2"/>
<path d="M43 742 A303 303 0 1 0 649 742 A303 303 0 1 0 43 742 Z" fill="#2a2b2f"/>
<line x1="643.6" y1="742" x2="620.2" y2="742" stroke="#d4d4d8" stroke-opacity="0.8" stroke-width="4"/><line x1="641.9697160615981" y1="773.1076706684537" x2="629.4387401799579" y2="771.7906120312813" stroke="#d4d4d8" stroke-opacity="0.35" stroke-width="2"/><line x1="637.0967259783806" y1="803.8745191873652" x2="624.7720662091347" y2="801.2548318830615" stroke="#d4d4d8" stroke-opacity="0.35" stroke-width="2"/><line x1="629.0344192494376" y1="833.9634575259844" x2="617.0511071441188" y2="830.06984339686" stroke="#d4d4d8" stroke-opacity="0.35" stroke-width="2"/><line x1="617.871128194438" y1="863.0448249793582" x2="606.3604554281412" y2="857.919943276603" stroke="#d4d4d8" stroke-opacity="0.35" stroke-width="2"/><line x1="603.7291601662489" y1="890.8" x2="583.464165717693" y2="879.0999999999999" stroke="#d4d4d8" stroke-opacity="0.8" stroke-width="4"/><line x1="586.7634575259844" y1="916.92489108224" x2="576.56984339686" y2="909.5187969033549" stroke="#d4d4d8" stroke-opacity="0.35" stroke-width="2"/><line x1="567.1599000620726" y1="941.1332684523962" x2="557.7962752610574" y2="932.7022228122746" stroke="#d4d4d8" stroke-opacity="0.35" stroke-width="2"/><line x1="545.1332684523962" y1="963.1599000620726" x2="536.7022228122746" y2="953.7962752610574" stroke="#d4d4d8" stroke-opacity="0.35" stroke-width="2"/><line x1="520.92489108224" y1="982.7634575259844" x2="513.5187969033549" y2="972.56984339686" stroke="#d4d4d8" stroke-opacity="0.35" stroke-width="2"/><line x1="494.80000000000007" y1="999.7291601662489" x2="483.1" y2="979.464165717693" stroke="#d4d4d8" stroke-opacity="0.8" stroke-width="4"/><line x1="467.04482497935817" y1="1013.871128194438" x2="461.91994327660314" y2="1002.3604554281412" stroke="#d4d4d8" stroke-opacity="0.35" stroke-width="2"/><line x1="437.9634575259844" y1="1025.0344192494376" x2="434.06984339686005" y2="1013.0511071441188" stroke="#d4d4d8" stroke-opacity="0.35" stroke-width="2"/><line x1="407.87451918736514" y1="1033.0967259783806" x2="405.2548318830614" y2="1020.7720662091347" stroke="#d4d4d8" stroke-opacity="0.35" stroke-width="2"/><line x1="377.1076706684537" y1="1037.969716061598" x2="375.7906120312812" y2="1025.438740179958" stroke="#d4d4d8" stroke-opacity="0.35" stroke-width="2"/><line x1="346" y1="1039.6" x2="346" y2="1016.2" stroke="#d4d4d8" stroke-opacity="0.8" stroke-width="4"/><line x1="314.89232933154636" y1="1037.9697160615983" x2="316.20938796871883" y2="1025.438740179958" stroke="#d4d4d8" stroke-opacity="0.35" stroke-width="2"/><line x1="284.12548081263486" y1="1033.0967259783806" x2="286.74516811693866" y2="1020.7720662091347" stroke="#d4d4d8" stroke-opacity="0.35" stroke-width="2"/><line x1="254.03654247401568" y1="1025.0344192494376" x2="257.93015660314" y2="1013.0511071441188" stroke="#d4d4d8" stroke-opacity="0.35" stroke-width="2"/><line x1="224.9551750206419" y1="1013.8711281944381" x2="230.08005672339698" y2="1002.3604554281412" stroke="#d4d4d8" stroke-opacity="0.35" stroke-width="2"/><line x1="197.20000000000005" y1="999.7291601662489" x2="208.90000000000006" y2="979.464165717693" stroke="#d4d4d8" stroke-opacity="0.8" stroke-width="4"/><line x1="171.07510891776002" y1="982.7634575259844" x2="178.48120309664517" y2="972.56984339686" stroke="#d4d4d8" stroke-opacity="0.35" stroke-width="2"/><line x1="146.86673154760388" y1="963.1599000620727" x2="155.2977771877255" y2="953.7962752610574" stroke="#d4d4d8" stroke-opacity="0.35" stroke-width="2"/><line x1="124.84009993792742" y1="941.1332684523961" x2="134.2037247389426" y2="932.7022228122745" stroke="#d4d4d8" stroke-opacity="0.35" stroke-width="2"/><line x1="105.23654247401566" y1="916.92489108224" x2="115.43015660314" y2="909.5187969033549" stroke="#d4d4d8" stroke-opacity="0.35" stroke-width="2"/><line x1="88.27083983375104" y1="890.8" x2="108.53583428230692" y2="879.0999999999999" stroke="#d4d4d8" stroke-opacity="0.8" stroke-width="4"/><line x1="74.12887180556191" y1="863.044824979358" x2="85.63954457185872" y2="857.919943276603" stroke="#d4d4d8" stroke-opacity="0.35" stroke-width="2"/><line x1="62.96558075056231" y1="833.9634575259844" x2="74.94889285588124" y2="830.06984339686" stroke="#d4d4d8" stroke-opacity="0.35" stroke-width="2"/><line x1="54.90327402161938" y1="803.8745191873652" x2="67.22793379086539" y2="801.2548318830615" stroke="#d4d4d8" stroke-opacity="0.35" stroke-width="2"/><line x1="50.03028393840185" y1="773.1076706684538" x2="62.561259820042096" y2="771.7906120312813" stroke="#d4d4d8" stroke-opacity="0.35" stroke-width="2"/><line x1="48.39999999999998" y1="742" x2="71.80000000000001" y2="742" stroke="#d4d4d8" stroke-opacity="0.8" stroke-width="4"/><line x1="50.03028393840185" y1="710.8923293315463" x2="62.561259820042096" y2="712.2093879687187" stroke="#d4d4d8" stroke-opacity="0.35" stroke-width="2"/><line x1="54.90327402161938" y1="680.1254808126349" x2="67.22793379086539" y2="682.7451681169387" stroke="#d4d4d8" stroke-opacity="0.35" stroke-width="2"/><line x1="62.96558075056231" y1="650.0365424740155" x2="74.94889285588124" y2="653.93015660314" stroke="#d4d4d8" stroke-opacity="0.35" stroke-width="2"/><line x1="74.12887180556191" y1="620.955175020642" x2="85.63954457185866" y2="626.0800567233971" stroke="#d4d4d8" stroke-opacity="0.35" stroke-width="2"/><line x1="88.27083983375104" y1="593.1999999999999" x2="108.53583428230695" y2="604.9" stroke="#d4d4d8" stroke-opacity="0.8" stroke-width="4"/><line x1="105.23654247401561" y1="567.07510891776" x2="115.43015660313998" y2="574.4812030966452" stroke="#d4d4d8" stroke-opacity="0.35" stroke-width="2"/><line x1="124.84009993792745" y1="542.8667315476038" x2="134.20372473894264" y2="551.2977771877254" stroke="#d4d4d8" stroke-opacity="0.35" stroke-width="2"/><line x1="146.8667315476037" y1="520.8400999379276" x2="155.29777718772533" y2="530.2037247389427" stroke="#d4d4d8" stroke-opacity="0.35" stroke-width="2"/><line x1="171.07510891775993" y1="501.23654247401566" x2="178.48120309664512" y2="511.43015660314" stroke="#d4d4d8" stroke-opacity="0.35" stroke-width="2"/><line x1="197.19999999999985" y1="484.2708398337511" x2="208.8999999999999" y2="504.53583428230695" stroke="#d4d4d8" stroke-opacity="0.8" stroke-width="4"/><line x1="224.9551750206419" y1="470.1288718055619" x2="230.08005672339698" y2="481.6395445718587" stroke="#d4d4d8" stroke-opacity="0.35" stroke-width="2"/><line x1="254.03654247401562" y1="458.9655807505623" x2="257.93015660313995" y2="470.94889285588124" stroke="#d4d4d8" stroke-opacity="0.35" stroke-width="2"/><line x1="284.1254808126347" y1="450.90327402161944" x2="286.74516811693843" y2="463.2279337908654" stroke="#d4d4d8" stroke-opacity="0.35" stroke-width="2"/><line x1="314.8923293315461" y1="446.03028393840185" x2="316.20938796871854" y2="458.5612598200421" stroke="#d4d4d8" stroke-opacity="0.35" stroke-width="2"/><line x1="345.99999999999994" y1="444.4" x2="345.99999999999994" y2="467.8" stroke="#d4d4d8" stroke-opacity="0.8" stroke-width="4"/><line x1="377.1076706684538" y1="446.03028393840185" x2="375.79061203128134" y2="458.5612598200421" stroke="#d4d4d8" stroke-opacity="0.35" stroke-width="2"/><line x1="407.8745191873652" y1="450.90327402161944" x2="405.25483188306146" y2="463.2279337908654" stroke="#d4d4d8" stroke-opacity="0.35" stroke-width="2"/><line x1="437.96345752598427" y1="458.96558075056225" x2="434.06984339685994" y2="470.94889285588124" stroke="#d4d4d8" stroke-opacity="0.35" stroke-width="2"/><line x1="467.04482497935805" y1="470.1288718055619" x2="461.9199432766029" y2="481.63954457185866" stroke="#d4d4d8" stroke-opacity="0.35" stroke-width="2"/><line x1="494.80000000000007" y1="484.27083983375104" x2="483.1" y2="504.53583428230695" stroke="#d4d4d8" stroke-opacity="0.8" stroke-width="4"/><line x1="520.9248910822399" y1="501.23654247401555" x2="513.5187969033548" y2="511.43015660313995" stroke="#d4d4d8" stroke-opacity="0.35" stroke-width="2"/><line x1="545.1332684523964" y1="520.8400999379276" x2="536.7022228122746" y2="530.2037247389427" stroke="#d4d4d8" stroke-opacity="0.35" stroke-width="2"/><line x1="567.1599000620724" y1="542.8667315476036" x2="557.7962752610572" y2="551.2977771877253" stroke="#d4d4d8" stroke-opacity="0.35" stroke-width="2"/><line x1="586.7634575259843" y1="567.07510891776" x2="576.56984339686" y2="574.4812030966451" stroke="#d4d4d8" stroke-opacity="0.35" stroke-width="2"/><line x1="603.7291601662489" y1="593.1999999999998" x2="583.464165717693" y2="604.8999999999999" stroke="#d4d4d8" stroke-opacity="0.8" stroke-width="4"/><line x1="617.8711281944381" y1="620.9551750206418" x2="606.3604554281412" y2="626.080056723397" stroke="#d4d4d8" stroke-opacity="0.35" stroke-width="2"/><line x1="629.0344192494376" y1="650.0365424740156" x2="617.0511071441188" y2="653.93015660314" stroke="#d4d4d8" stroke-opacity="0.35" stroke-width="2"/><line x1="637.0967259783806" y1="680.1254808126347" x2="624.7720662091347" y2="682.7451681169384" stroke="#d4d4d8" stroke-opacity="0.35" stroke-width="2"/><line x1="641.9697160615981" y1="710.8923293315461" x2="629.4387401799579" y2="712.2093879687185" stroke="#d4d4d8" stroke-opacity="0.35" stroke-width="2"/>
<path d="M88 742 A258 258 0 1 0 604 742 A258 258 0 1 0 88 742 Z" fill="#050506"/>
<!--/BODY-->
<!--SCREEN--><defs>
<linearGradient id="fk_scr_galaxy-watch-8-classic_white_a" x1="0" y1="0" x2="1" y2="1"><stop offset="0" stop-color="#1e293b"/><stop offset="1" stop-color="#020617"/></linearGradient>
<radialGradient id="fk_scr_galaxy-watch-8-classic_white_b" cx="0.28" cy="0.22" r="0.8"><stop offset="0" stop-color="#94a3b8" stop-opacity="0.95"/><stop offset="1" stop-color="#94a3b8" stop-opacity="0"/></radialGradient>
<radialGradient id="fk_scr_galaxy-watch-8-classic_white_c" cx="0.85" cy="0.92" r="0.9"><stop offset="0" stop-color="#ffffff" stop-opacity="0.32"/><stop offset="1" stop-color="#ffffff" stop-opacity="0"/></radialGradient>
</defs>
<path d="M106 742 A240 240 0 1 0 586 742 A240 240 0 1 0 106 742 Z" fill="url(#fk_scr_galaxy-watch-8-classic_white_a)"/>
<path d="M106 742 A240 240 0 1 0 586 742 A240 240 0 1 0 106 742 Z" fill="url(#fk_scr_galaxy-watch-8-classic_white_b)"/>
<path d="M106 742 A240 240 0 1 0 586 742 A240 240 0 1 0 106 742 Z" fill="url(#fk_scr_galaxy-watch-8-classic_white_c)"/><!--/SCREEN-->
<!--OVERLAY-->
<path d="M106 742 A240 240 0 1 0 586 742 A240 240 0 1 0 106 742 Z" fill="none" stroke="#000" stroke-opacity="0.5" stroke-width="5"/>
<path d="M88 742 A258 258 0 1 0 604 742 A258 258 0 1 0 88 742 Z" fill="url(#fk_galaxy-watch-8-classic_white_dome)"/>
<path d="M106 742 A240 240 0 1 0 586 742 A240 240 0 1 0 106 742 Z" fill="url(#fk_galaxy-watch-8-classic_white_rimShade)"/><!--/OVERLAY-->
</svg>