<svg xmlns="http://www.w3.org/2000/svg" viewBox="0 0 3277 1958">
<!--BODY--><image href="/devices/macbook-air-13/starlight.webp" x="0" y="0" width="3277" height="1958" preserveAspectRatio="none"/><!--/BODY-->
<!--SCREEN--><defs>
<linearGradient id="fk_scr_macbook-air-13_starlight_a" x1="0" y1="0" x2="1" y2="1"><stop offset="0" stop-color="#0891b2"/><stop offset="1" stop-color="#1e40af"/></linearGradient>
<radialGradient id="fk_scr_macbook-air-13_starlight_b" cx="0.28" cy="0.22" r="0.8"><stop offset="0" stop-color="#67e8f9" stop-opacity="0.95"/><stop offset="1" stop-color="#67e8f9" stop-opacity="0"/></radialGradient>
<radialGradient id="fk_scr_macbook-air-13_starlight_c" cx="0.85" cy="0.92" r="0.9"><stop offset="0" stop-color="#ffffff" stop-opacity="0.32"/><stop offset="1" stop-color="#ffffff" stop-opacity="0"/></radialGradient>
</defs>
<path d="M384.5 76 H2892.5 A26 26 0 0 1 2918.5 102 V1740 H358.5 V102 A26 26 0 0 1 384.5 76 Z" fill="url(#fk_scr_macbook-air-13_starlight_a)"/>
<path d="M384.5 76 H2892.5 A26 26 0 0 1 2918.5 102 V1740 H358.5 V102 A26 26 0 0 1 384.5 76 Z" fill="url(#fk_scr_macbook-air-13_starlight_b)"/>
<path d="M384.5 76 H2892.5 A26 26 0 0 1 2918.5 102 V1740 H358.5 V102 A26 26 0 0 1 384.5 76 Z" fill="url(#fk_scr_macbook-air-13_starlight_c)"/><!--/SCREEN-->
<!--OVERLAY-->
<path d="M1493.5 75 H1783.5 V120 A18 18 0 0 1 1765.5 138 H1511.5 A18 18 0 0 1 1493.5 120 V75 Z" fill="#000000"/>
<circle cx="1638.5" cy="107" r="9.92" fill="#0b0e18" stroke="#1b2134" stroke-width="2"/>
<circle cx="1636.02" cy="104.52" r="3.1" fill="#5a6ea0" opacity="0.7"/><!--/OVERLAY-->
</svg>