<svg xmlns="http://www.w3.org/2000/svg" viewBox="0 0 1216 2536">
<!--BODY--><image href="/devices/pixel-8a/obsidian.webp" x="0" y="0" width="1216" height="2536" preserveAspectRatio="none"/><!--/BODY-->
<!--SCREEN--><defs>
<linearGradient id="fk_scr_pixel-8a_obsidian_a" x1="0" y1="0" x2="1" y2="1"><stop offset="0" stop-color="#16a34a"/><stop offset="1" stop-color="#065f46"/></linearGradient>
<radialGradient id="fk_scr_pixel-8a_obsidian_b" cx="0.28" cy="0.22" r="0.8"><stop offset="0" stop-color="#a7f3d0" stop-opacity="0.95"/><stop offset="1" stop-color="#a7f3d0" stop-opacity="0"/></radialGradient>
<radialGradient id="fk_scr_pixel-8a_obsidian_c" cx="0.85" cy="0.92" r="0.9"><stop offset="0" stop-color="#ffffff" stop-opacity="0.32"/><stop offset="1" stop-color="#ffffff" stop-opacity="0"/></radialGradient>
</defs>
<path d="M178 68 H1038 A110 110 0 0 1 1148 178 V2358 A110 110 0 0 1 1038 2468 H178 A110 110 0 0 1 68 2358 V178 A110 110 0 0 1 178 68 Z" fill="url(#fk_scr_pixel-8a_obsidian_a)"/>
<path d="M178 68 H1038 A110 110 0 0 1 1148 178 V2358 A110 110 0 0 1 1038 2468 H178 A110 110 0 0 1 68 2358 V178 A110 110 0 0 1 178 68 Z" fill="url(#fk_scr_pixel-8a_obsidian_b)"/>
<path d="M178 68 H1038 A110 110 0 0 1 1148 178 V2358 A110 110 0 0 1 1038 2468 H178 A110 110 0 0 1 68 2358 V178 A110 110 0 0 1 178 68 Z" fill="url(#fk_scr_pixel-8a_obsidian_c)"/><!--/SCREEN-->
<!--OVERLAY-->
<circle cx="608" cy="160" r="38" fill="#000" opacity="0.5"/>
<circle cx="608" cy="160" r="36" fill="#020204"/>
<circle cx="608" cy="160" r="22.32" fill="#0b0e18" stroke="#1b2134" stroke-width="2"/>
<circle cx="608" cy="160" r="10.799999999999999" fill="#141c30"/>
<circle cx="600.08" cy="151" r="5.040000000000001" fill="#5a6ea0" opacity="0.75"/>
<path d="M178 68 H1038 A110 110 0 0 1 1148 178 V2358 A110 110 0 0 1 1038 2468 H178 A110 110 0 0 1 68 2358 V178 A110 110 0 0 1 178 68 Z" fill="none" stroke="#000" stroke-opacity="0.45" stroke-width="4"/><!--/OVERLAY-->
</svg>